<svg xmlns="http://www.w3.org/2000/svg" width="10" height="17" fill="none" xmlns:v="https://vecta.io/nano"><path fill-rule="evenodd" d="M7.321.033C5.135.255 3.889 1.11 3.311 2.785c-.175.507-.179.547-.203 2.263l-.024 1.746h-1.5-1.5v.805L.042 9.27 0 10.136h1.505H3.01l.042 1.595.042 3.432V17h1.729 1.729v-1.509l.042-3.432.042-1.923h1.397c1.397 0 1.398 0 1.429-.137a59.13 59.13 0 0 0 .226-1.503l.228-1.503.033-.137H8.773c-.647 0-1.397-.018-1.666-.039l-.49-.039V5.432c0-1.274.008-1.359.144-1.616.286-.537.711-.666 2.187-.666h.98l.046-1.494.016-1.522c-.116-.11-1.912-.178-2.67-.101z" fill="#d1a840"/></svg>