<svg xmlns="http://www.w3.org/2000/svg" width="20" height="20" fill="none" xmlns:v="https://vecta.io/nano"><path d="M5.8 0h8.4C17.4 0 20 2.6 20 5.8v8.4a5.8 5.8 0 0 1-5.8 5.8H5.8C2.6 20 0 17.4 0 14.2V5.8A5.8 5.8 0 0 1 5.8 0zm-.2 2A3.6 3.6 0 0 0 2 5.6v8.8A3.6 3.6 0 0 0 5.6 18h8.8a3.6 3.6 0 0 0 3.6-3.6V5.6A3.6 3.6 0 0 0 14.4 2H5.6zm9.65 1.5a1.25 1.25 0 0 1 1.25 1.25A1.25 1.25 0 0 1 15.25 6 1.25 1.25 0 0 1 14 4.75a1.25 1.25 0 0 1 1.25-1.25zM10 5a5 5 0 0 1 5 5 5 5 0 0 1-5 5 5 5 0 0 1-5-5 5 5 0 0 1 5-5zm0 2a3 3 0 0 0-3 3 3 3 0 0 0 3 3 3 3 0 0 0 3-3 3 3 0 0 0-3-3z" fill="#d1a840"/></svg>