<svg xmlns="http://www.w3.org/2000/svg" width="17" height="15" fill="none" xmlns:v="https://vecta.io/nano"><path d="M17 1.765c-.626.309-1.3.512-1.999.609.715-.468 1.268-1.209 1.528-2.1a6.7 6.7 0 0 1-2.21.926C13.676.441 12.774 0 11.751 0c-1.91 0-3.47 1.694-3.47 3.785a4.26 4.26 0 0 0 .089.865C5.477 4.491 2.901 2.982 1.186.697.886 1.253.715 1.906.715 2.594c0 1.315.609 2.479 1.552 3.141-.577 0-1.113-.176-1.585-.441v.026c0 1.835 1.203 3.371 2.795 3.715-.293.088-.601.132-.918.132-.219 0-.439-.026-.65-.071.439 1.491 1.715 2.603 3.25 2.629C3.974 12.75 2.47 13.35.829 13.35c-.276 0-.553-.018-.829-.053C1.544 14.374 3.381 15 5.347 15c6.403 0 9.922-5.771 9.922-10.774 0-.168 0-.326-.008-.494A7.33 7.33 0 0 0 17 1.765z" fill="#d1a840"/></svg>