<svg width="128" height="125" viewBox="0 0 128 125" fill="none" xmlns="http://www.w3.org/2000/svg">
<path fill-rule="evenodd" clip-rule="evenodd" d="M113.736 54.6706C112.804 55.0255 107.491 59.099 101.931 63.7228C93.8016 70.4811 91.5857 71.8224 90.6309 70.5636C86.7291 65.4268 85.0602 65.1477 58.2055 65.1477H32.5553L17.7777 79.792C9.64983 87.8464 3 95.3561 3 96.4793C3 98.9347 25.4772 121.646 27.9066 121.646C28.8434 121.646 33.3994 117.832 38.0289 113.171L46.4471 104.696H68.7288H91.0117L108.023 85.4102C121.069 70.6212 125.028 65.4166 125 63.0934C124.959 59.6007 123.259 57.0345 119.743 55.1622C117.079 53.743 116.335 53.6831 113.736 54.6706ZM114.648 64.9917C113.836 66.1499 107.324 73.7512 100.177 81.8847L87.1822 96.6736L65.1762 96.7301L43.1702 96.7866L35.6096 104.29L28.049 111.793L20.6139 104.022L13.1798 96.2499L24.736 84.6542L36.2932 73.0574H58.4145C81.6206 73.0574 85.6059 73.8235 84.0116 77.9784C83.3867 79.6078 80.7946 79.8372 63.0044 79.8372C46.0618 79.8372 42.4165 80.131 40.934 81.6124C39.9577 82.5898 39.1588 83.8248 39.1588 84.357C39.1588 84.8892 39.9577 86.1243 40.934 87.1017C42.4029 88.5707 45.8911 88.8769 61.1321 88.8769C71.2645 88.8769 81.0906 88.5695 82.9686 88.1944C85.0353 87.7808 92.1123 82.67 100.907 75.2405C108.896 68.4912 115.587 62.9499 115.778 62.9284C115.968 62.9058 115.46 63.8346 114.648 64.9917Z" fill="#404040"/>
<path fill-rule="evenodd" clip-rule="evenodd" d="M43.8118 6.67238C38.4727 12.5911 31.25 21.5495 31.25 22.2512C31.25 23.4535 66.6517 62.3197 68.0653 62.6688C69.3682 62.9909 102.571 27.2795 104.772 23.1891C105.532 21.7789 103.892 19.1777 97.8274 12.1719L89.8894 3H68.5071H47.1249L43.8118 6.67238ZM62.889 9.18203C62.889 9.47469 61.2652 12.0171 59.281 14.8318L55.6741 19.9494H47.9814C43.7508 19.9494 40.2897 19.6545 40.2897 19.2941C40.2897 18.9336 42.1971 16.407 44.5271 13.6815C48.6842 8.81705 48.8978 8.72326 55.8267 8.68711C59.7115 8.66677 62.889 8.88937 62.889 9.18203ZM92.3505 13.4522C94.7404 16.0929 96.7155 18.6353 96.7415 19.102C96.7675 19.5686 93.3143 19.9494 89.0702 19.9494H81.3514L77.7706 14.9629C75.7999 12.2194 74.1886 9.67695 74.1886 9.31311C74.1886 8.94813 77.2971 8.64982 81.0972 8.64982C87.79 8.64982 88.1414 8.8001 92.3505 13.4522ZM71.8518 15.3211C73.1366 17.1268 74.1886 18.9065 74.1886 19.276C74.1886 19.6466 71.6462 19.9494 68.5388 19.9494C65.4314 19.9494 62.889 19.6466 62.889 19.276C62.889 18.0195 67.558 12.0397 68.5388 12.0397C69.0755 12.0397 70.5659 13.5166 71.8518 15.3211ZM58.5736 35.7689C60.2968 41.673 61.5805 46.9183 61.4257 47.4256C61.1759 48.2426 51.2944 37.7859 42.9926 27.9213L39.9959 24.3597L47.7181 24.6964L55.4402 25.0343L58.5736 35.7689ZM75.3186 25.788C75.3186 28.2513 69.3501 49.3285 68.6529 49.3285C67.9015 49.3285 61.655 28.2038 61.7194 25.8818C61.7726 23.9834 75.3186 23.8896 75.3186 25.788ZM95.4692 25.5654C94.8658 27.3236 76.1208 48.2471 75.609 47.7352C75.1525 47.2787 79.1842 31.9994 81.0769 27.0117C81.9334 24.7574 82.826 24.4693 88.9448 24.4693C92.9087 24.4693 95.6861 24.936 95.4692 25.5654Z" fill="#E5B740"/>
</svg>
