<svg width="128" height="125" viewBox="0 0 128 125" fill="none" xmlns="http://www.w3.org/2000/svg">
<path fill-rule="evenodd" clip-rule="evenodd" d="M47.818 32.7844C40.67 35.0704 30.298 40.7414 23.07 46.3164C15.067 52.4884 0 68.4374 0 70.7354C0 73.3024 6.085 80.8744 14.327 88.5654C30.594 103.743 47.937 111.86 64.104 111.86C70.39 111.86 80.233 109.876 84.031 107.844C85.81 106.892 85.818 106.703 84.199 103.851C83.099 101.912 81.972 101.059 81 101.43C76.642 103.095 68.067 104.86 64.339 104.86C49.023 104.86 32.1 96.0514 15.793 79.5904L7.977 71.7014L9.993 68.8704C13.023 64.6144 25.711 53.1444 32.481 48.5394C50.802 36.0794 68.567 34.5464 86.948 43.8384C90.001 45.3814 95.276 48.6904 98.669 51.1904C105.591 56.2914 118.993 69.4914 119.014 71.2284C119.021 71.8514 114.317 76.9144 108.561 82.4804L98.094 92.6004L100.51 94.8694C102.747 96.9714 103.098 97.0264 105.259 95.6104C108.325 93.6014 122.285 79.6644 125.65 75.2524C128.948 70.9284 128.538 69.9074 119.587 60.1894C107.487 47.0524 94.299 37.9604 80.737 33.4084C71.181 30.2004 56.754 29.9274 47.818 32.7844ZM51.882 48.6534C38.777 55.4994 34.408 70.6364 41.675 84.0154C47.985 95.6314 64.371 100.276 75.994 93.7434L80.024 91.4784L84.033 95.3934C86.456 97.7584 87.82 99.8874 87.48 100.772C86.876 102.347 102.527 118.86 104.624 118.86C105.267 118.86 107.23 117.223 108.987 115.222L112.181 111.584L103.842 103.201C98.843 98.1764 94.823 94.9274 93.805 95.0894C92.872 95.2384 90.309 93.6064 88.111 91.4634L84.115 87.5664L86.643 82.5774C89.646 76.6524 90.018 67.2384 87.489 61.1684C85.411 56.1824 79.51 50.0914 74.5 47.7634C68.148 44.8114 58.51 45.1904 51.882 48.6534ZM70.782 52.4134C78.431 55.6084 83.935 63.5284 83.978 71.3984C84.007 76.6934 80.461 83.4794 75.677 87.2864C72.362 89.9244 70.898 90.3734 64.677 90.6644C58.25 90.9654 57.07 90.7174 53.386 88.2944C47.073 84.1434 44 78.6844 44 71.6204C44 64.5814 46.498 59.1074 51.426 55.3494C57.414 50.7814 64.355 49.7284 70.782 52.4134ZM50.992 65.3694C50.048 66.5074 49.988 67.2484 50.775 68.0354C52.292 69.5524 55.217 68.2234 54.824 66.1964C54.375 63.8804 52.554 63.4874 50.992 65.3694ZM60.75 66.9404C58.62 68.1814 58.424 73.1374 60.44 74.8104C64.995 78.5914 71.481 72.2594 67.527 67.8904C65.513 65.6654 63.439 65.3744 60.75 66.9404ZM50 73.8254C50 77.9384 55.128 83.5484 60.114 84.8914C64.58 86.0934 66 85.5894 66 82.8014C66 81.3774 65.307 80.8604 63.4 80.8604C60.482 80.8604 54 75.0674 54 72.4604C54 71.5274 53.167 70.8604 52 70.8604C50.45 70.8604 50 71.5274 50 73.8254Z" fill="#404040"/>
<path fill-rule="evenodd" clip-rule="evenodd" d="M61.0047 9.05681C59.9227 13.0988 60.3157 21.4168 61.6767 23.2788C62.4007 24.2688 63.8627 24.9108 64.9267 24.7058C66.6577 24.3728 66.8607 23.4418 66.8607 15.8468C66.8607 7.43581 66.8377 7.35781 64.2417 7.05681C62.2187 6.82281 61.4817 7.27781 61.0047 9.05681ZM33.9447 15.4198C32.5337 16.8308 32.6137 17.4268 34.7957 21.7318C37.6207 27.3068 39.5167 29.1218 41.6567 28.3008C44.4307 27.2368 44.4487 24.6868 41.7157 19.9808C37.9727 13.5328 36.6237 12.7408 33.9447 15.4198ZM87.4117 19.0478C84.0637 24.8598 83.9267 26.5778 86.6777 28.2538C88.1867 29.1728 88.9037 28.8548 90.9047 26.3728C94.4577 21.9688 95.9127 17.9608 94.6737 15.9928C92.6207 12.7328 90.5477 13.6048 87.4117 19.0478Z" fill="#E5B740"/>
<circle cx="64.5" cy="70.5" r="6.5" fill="#E5B740"/>
</svg>
