<svg xmlns="http://www.w3.org/2000/svg" width="20" height="14" fill="none" xmlns:v="https://vecta.io/nano"><path d="M8 10l5.19-3L8 4v6zm11.56-7.83c.13.47.22 1.1.28 1.9l.1 2.09L20 7c0 2.19-.16 3.8-.44 4.83a2.34 2.34 0 0 1-1.73 1.73c-.47.13-1.33.22-2.65.28l-3.59.1L10 14c-4.19 0-6.8-.16-7.83-.44a2.34 2.34 0 0 1-1.73-1.73c-.13-.47-.22-1.1-.28-1.9l-.1-2.09L0 7c0-2.19.16-3.8.44-4.83A2.34 2.34 0 0 1 2.17.44C2.64.31 3.5.22 4.82.16l3.59-.1L10 0c4.19 0 6.8.16 7.83.44a2.34 2.34 0 0 1 1.73 1.73z" fill="#d1a840"/></svg>